<?xml version="1.0" encoding="utf-8"?>
<!-- Generator: Adobe Illustrator 16.0.4, SVG Export Plug-In . SVG Version: 6.00 Build 0)  -->
<!DOCTYPE svg PUBLIC "-//W3C//DTD SVG 1.1//EN" "http://www.w3.org/Graphics/SVG/1.1/DTD/svg11.dtd">
<svg version="1.1" id="Livello_1" xmlns="http://www.w3.org/2000/svg" xmlns:xlink="http://www.w3.org/1999/xlink" x="0px" y="0px"
	 width="595.28px" height="841.89px" viewBox="0 0 595.28 841.89" enable-background="new 0 0 595.28 841.89" xml:space="preserve">
<g>
	<path d="M107.543,448.667l13.088-7.324l-14.421-4.36L107.543,448.667z M105.772,449.588l-1.504-13.177l-5.613-1.692
		c-1.391-0.412-2.419-0.596-3.065-0.508c-0.521,0.056-0.946,0.356-1.288,0.881c-0.342,0.557-0.465,1.636-0.389,3.288l-0.937,0.104
		l-1.22-10.708l0.929-0.11c0.413,1.397,0.843,2.279,1.291,2.652c0.902,0.763,2.638,1.525,5.215,2.288l29.339,8.785l0.099,0.867
		l-26.94,15.06c-2.165,1.2-3.539,2.233-4.127,3.09c-0.6,0.866-0.845,1.987-0.778,3.377l-0.93,0.103l-1.513-13.408l0.93-0.119
		c0.218,1.358,0.551,2.239,0.984,2.676c0.438,0.447,0.925,0.622,1.478,0.558c0.735-0.072,1.863-0.548,3.376-1.39L105.772,449.588z"
		/>
	<path d="M124.349,479.219l-13.52,3.654c-2.578,0.698-4.154,1.192-4.689,1.477c-0.537,0.263-0.89,0.58-1.053,0.906
		c-0.151,0.332-0.188,0.675-0.08,1.033c0.139,0.507,0.434,1.024,0.878,1.588l-0.762,0.58l-4.557-5.934l-0.302-1.088l4.727-1.296
		c-2.594-1.35-4.313-2.454-5.116-3.305c-0.806-0.866-1.358-1.858-1.668-2.979c-0.341-1.247-0.27-2.423,0.203-3.542
		c0.472-1.121,1.228-2.018,2.26-2.679c1.044-0.666,2.605-1.278,4.694-1.834l9.958-2.717c1.057-0.278,1.748-0.604,2.097-0.938
		c0.342-0.333,0.572-0.754,0.667-1.255c0.093-0.516-0.023-1.359-0.356-2.51l0.901-0.254l2.118,7.816l-14.927,4.066
		c-2.082,0.563-3.343,1.287-3.8,2.191c-0.453,0.907-0.536,1.852-0.259,2.885c0.187,0.697,0.62,1.438,1.291,2.191
		c0.675,0.764,1.808,1.599,3.376,2.472l12.635-3.425c1.275-0.349,2.065-0.811,2.39-1.391c0.311-0.587,0.294-1.61-0.071-3.081
		l0.901-0.255L124.349,479.219z"/>
	<path d="M134.941,485.669l-7.109,2.685l1.91,5.06l-1.659,0.621l-1.903-5.053l-14.025,5.299c-1.398,0.538-2.268,1.096-2.608,1.674
		c-0.326,0.589-0.382,1.201-0.147,1.829c0.194,0.523,0.552,0.969,1.064,1.335c0.497,0.373,1.124,0.547,1.854,0.587l0.342,0.921
		c-1.748,0.032-3.205-0.317-4.36-1.023c-1.16-0.707-1.95-1.606-2.348-2.67c-0.278-0.724-0.342-1.517-0.207-2.353
		c0.139-0.841,0.52-1.57,1.148-2.183c0.619-0.62,1.708-1.224,3.269-1.819l14.552-5.488l-1.307-3.425l0.778-0.3
		c0.675,0.737,1.597,1.396,2.768,1.991c1.16,0.598,2.447,1.024,3.845,1.311c0.75,0.128,2.025,0.224,3.857,0.271L134.941,485.669z"/>
	<path d="M115.388,505.783c0.326,0.724,0.351,1.437,0.076,2.16c-0.278,0.716-0.759,1.23-1.465,1.549
		c-0.708,0.325-1.422,0.351-2.142,0.07c-0.73-0.269-1.25-0.76-1.568-1.461c-0.317-0.699-0.342-1.414-0.071-2.144
		c0.273-0.724,0.754-1.239,1.461-1.564c0.727-0.336,1.442-0.351,2.157-0.081C114.551,504.59,115.07,505.084,115.388,505.783"/>
	<path d="M132.714,537.462l9.944-6.53c0.907-0.715,1.614-1.542,2.125-2.486c0.513-0.938,0.739-1.882,0.683-2.835
		c-0.055-0.97-0.309-1.773-0.738-2.44c-0.814-1.247-2.093-1.986-3.848-2.215c-2.296-0.326-4.858,0.452-7.663,2.287
		c-2.84,1.868-4.615,3.931-5.313,6.147c-0.708,2.232-0.552,4.107,0.448,5.632C129.19,536.301,130.655,537.104,132.714,537.462
		 M131.231,538.447c-1.601-0.304-2.919-0.755-3.935-1.367c-1.01-0.628-1.871-1.454-2.554-2.502
		c-1.382-2.105-1.708-4.528-0.986-7.267c0.731-2.727,2.482-5.022,5.255-6.824c2.765-1.819,5.874-2.615,9.322-2.384
		c3.447,0.215,6.061,1.717,7.864,4.464c1.124,1.699,1.505,3.464,1.156,5.29l3.563-2.343c2.211-1.469,3.53-2.407,3.963-2.845
		c0.438-0.438,0.684-0.824,0.707-1.167c0.04-0.341-0.059-0.698-0.278-1.033c-0.234-0.349-0.667-0.761-1.294-1.23l0.564-0.755
		l6.148,4.194l0.62,0.945l-22.337,14.696c-2.272,1.478-3.61,2.453-4.051,2.877c-0.413,0.435-0.659,0.841-0.707,1.189
		c-0.04,0.373,0.031,0.707,0.242,1.01c0.246,0.389,0.692,0.81,1.358,1.286l-0.583,0.715l-6.161-4.17l-0.632-0.97L131.231,538.447z"
		/>
	<path d="M148.99,540.201l6.871,8.199c1.093-1.025,1.776-1.819,2.058-2.432c0.449-0.921,0.62-1.865,0.497-2.858
		c-0.123-0.986-0.472-1.828-1.057-2.519c-0.893-1.063-2.116-1.692-3.654-1.827C152.167,538.613,150.591,539.098,148.99,540.201
		 M147.866,541.13c-2.646,2.194-4.174,4.561-4.571,7.11c-0.425,2.534,0.099,4.678,1.553,6.435c0.97,1.145,2.141,1.883,3.5,2.215
		c1.35,0.326,3.05,0.111,5.084-0.602l0.103,0.936c-1.99,1.208-4.246,1.772-6.792,1.686c-2.545-0.097-4.634-1.121-6.287-3.075
		c-1.779-2.12-2.471-4.655-2.081-7.546c0.38-2.915,1.97-5.536,4.774-7.873c3.018-2.541,6.044-3.749,9.044-3.613
		c2.995,0.128,5.477,1.367,7.442,3.718c1.668,1.986,2.383,4.17,2.142,6.53c-0.242,2.39-1.45,4.486-3.654,6.33L147.866,541.13z"/>
	<path d="M180.153,544.85l-21.662,21.7c-1.025,1.018-1.629,1.773-1.808,2.248c-0.194,0.485-0.21,0.962-0.079,1.454
		c0.147,0.478,0.644,1.145,1.482,1.979l-0.635,0.641l-8.027-7.989l0.646-0.643c0.743,0.746,1.335,1.167,1.76,1.301
		c0.43,0.104,0.902,0.072,1.414-0.134c0.513-0.2,1.272-0.811,2.289-1.819l14.843-14.864c1.83-1.842,2.918-3.033,3.269-3.525
		c0.317-0.501,0.479-0.93,0.464-1.271c-0.039-0.334-0.202-0.652-0.481-0.938c-0.305-0.302-0.801-0.604-1.461-0.897l0.318-0.922
		l6.871,2.876L180.153,544.85z"/>
	<path d="M190.44,590.661l-5.811,3.923l-16.34-11.852l0.552-0.763c7.987-0.896,13.977-2.025,17.952-3.377
		c3.979-1.35,6.8-3.193,8.468-5.487c1.266-1.757,1.791-3.582,1.536-5.505c-0.27-1.9-1.139-3.408-2.645-4.496
		c-1.346-0.986-2.86-1.479-4.528-1.461c-1.66,0.014-3.305,0.604-4.944,1.753l-0.751-0.54c2.173-2.278,4.449-3.573,6.831-3.899
		c2.388-0.324,4.648,0.277,6.752,1.819c2.248,1.621,3.606,3.702,4.059,6.243c0.449,2.534-0.032,4.79-1.445,6.737
		c-1.033,1.414-2.368,2.572-4.043,3.503c-2.606,1.477-5.938,2.63-9.99,3.438c-6.077,1.256-9.818,1.946-11.208,2.089l7.22,5.26
		c1.474,1.072,2.545,1.765,3.221,2.089c0.667,0.316,1.359,0.477,2.077,0.492c0.715,0.008,1.486-0.158,2.292-0.508L190.44,590.661z"
		/>
	<path d="M209.845,586.338c2.654-0.604,4.472-1.248,5.442-1.898c0.984-0.66,1.791-1.581,2.442-2.731
		c0.847-1.558,1.089-3.013,0.7-4.37c-0.385-1.344-1.327-2.439-2.833-3.281c-1.497-0.826-2.97-1.063-4.393-0.721
		c-1.414,0.354-2.455,1.102-3.09,2.277c-0.425,0.772-0.66,1.637-0.691,2.63c-0.024,0.97,0.119,2.011,0.465,3.106L209.845,586.338z
		 M205.648,588.207c-1.787,0.356-3.309,0.975-4.58,1.874c-1.259,0.881-2.269,2.034-3.066,3.455c-1.033,1.898-1.368,3.709-0.95,5.426
		c0.414,1.716,1.414,3.019,3.022,3.9c1.588,0.872,3.11,1.135,4.564,0.754c1.45-0.365,2.538-1.184,3.229-2.471
		c0.595-1.057,0.837-2.161,0.742-3.32C208.423,595.688,207.447,592.496,205.648,588.207 M205.08,586.798
		c-1.311-3.256-1.963-5.663-2.002-7.22c-0.04-1.556,0.293-2.964,0.993-4.226c1.072-1.945,2.749-3.202,5.036-3.79
		c2.276-0.579,4.659-0.184,7.157,1.192c2.406,1.333,3.996,3.059,4.734,5.196c0.762,2.12,0.668,4.018-0.27,5.693
		c-0.608,1.137-1.625,2.049-3.075,2.772c-1.429,0.724-3.856,1.185-7.24,1.367c1.489,3.44,2.327,5.949,2.539,7.562
		c0.293,2.129-0.017,4.026-0.943,5.688c-1.163,2.111-2.962,3.462-5.385,4.075c-2.439,0.611-4.961,0.183-7.558-1.257
		c-2.853-1.573-4.58-3.677-5.18-6.346c-0.488-2.123-0.246-4.037,0.675-5.729c0.739-1.328,1.912-2.398,3.523-3.202
		C199.702,587.76,202.028,587.173,205.08,586.798"/>
	<polygon points="238.157,582.048 212.273,610.733 210.417,609.923 236.31,581.253 	"/>
	<path d="M238.729,587.602l9.182-1.318l0.791,0.254l-8.849,27.509c-0.572,1.827-0.866,2.995-0.866,3.487
		c0.02,0.5,0.222,0.944,0.619,1.342c0.405,0.398,1.342,0.85,2.817,1.358l-0.303,0.882l-12.256-3.948l0.282-0.874
		c1.545,0.453,2.598,0.645,3.126,0.557c0.512-0.095,0.926-0.304,1.236-0.636c0.293-0.341,0.746-1.485,1.39-3.438l5.648-17.589
		c0.771-2.375,1.167-3.917,1.227-4.638c0.056-0.558-0.04-0.993-0.254-1.336c-0.219-0.332-0.537-0.571-0.949-0.707
		c-0.588-0.188-1.498-0.206-2.717-0.046L238.729,587.602z"/>
	<path d="M272.414,620.901l-3.562,6.029l-19.855-3.74l0.179-0.915c6.835-4.227,11.765-7.801,14.791-10.725
		c3.007-2.922,4.782-5.782,5.303-8.577c0.405-2.129,0.079-4.021-0.961-5.641c-1.049-1.597-2.486-2.589-4.31-2.924
		c-1.651-0.316-3.221-0.119-4.726,0.596c-1.49,0.731-2.725,1.963-3.709,3.718l-0.925-0.182c0.989-2.987,2.502-5.133,4.52-6.436
		c2.018-1.327,4.313-1.738,6.875-1.255c2.732,0.518,4.837,1.828,6.343,3.925c1.489,2.089,2.017,4.32,1.561,6.719
		c-0.306,1.694-1.025,3.321-2.138,4.87c-1.731,2.455-4.261,4.918-7.558,7.396c-4.969,3.726-8.051,5.951-9.246,6.673l8.774,1.653
		c1.782,0.341,3.05,0.523,3.8,0.523c0.739,0,1.446-0.151,2.09-0.438c0.657-0.294,1.27-0.778,1.838-1.453L272.414,620.901z"/>
	<polygon points="290.754,593.027 275.115,628.352 273.105,628.168 288.738,592.836 	"/>
	<path d="M310.766,622.188l-2.289,6.616l-20.195,0.335l-0.017-0.93c5.854-5.514,9.965-10.025,12.333-13.48
		c2.367-3.465,3.52-6.626,3.471-9.47c-0.023-2.175-0.723-3.946-2.074-5.321c-1.357-1.374-2.945-2.05-4.797-2.018
		c-1.69,0.031-3.189,0.54-4.516,1.55c-1.326,1.017-2.279,2.453-2.887,4.384h-0.938c0.377-3.105,1.41-5.513,3.126-7.213
		c1.708-1.699,3.872-2.559,6.482-2.606c2.771-0.038,5.1,0.82,6.986,2.566c1.895,1.748,2.859,3.837,2.893,6.261
		c0.037,1.738-0.348,3.479-1.117,5.218c-1.195,2.741-3.174,5.665-5.922,8.747c-4.108,4.655-6.68,7.46-7.713,8.421l8.94-0.152
		c1.816-0.031,3.09-0.119,3.816-0.254c0.74-0.151,1.383-0.453,1.979-0.858c0.572-0.421,1.088-1.016,1.502-1.779L310.766,622.188z"/>
	<path d="M317.43,611.9c0.605,4.673,1.668,8.421,3.193,11.218c1.254,2.375,2.844,3.423,4.727,3.199
		c0.898-0.134,1.787-0.648,2.662-1.578c0.857-0.947,1.414-2.393,1.668-4.361c0.404-2.972,0.27-7.062-0.396-12.288
		c-0.494-3.878-1.305-7.048-2.432-9.534c-0.852-1.851-1.812-3.091-2.859-3.771c-0.764-0.469-1.621-0.638-2.574-0.526
		c-1.152,0.151-2.098,0.787-2.836,1.923c-1.033,1.533-1.58,3.814-1.621,6.842C316.904,606.063,317.049,609.001,317.43,611.9
		 M312.434,611.9c-0.484-3.869-0.326-7.275,0.484-10.237c0.793-2.94,2.08-5.22,3.861-6.841c1.367-1.271,2.826-2.01,4.432-2.207
		c2.605-0.334,5.125,0.689,7.531,3.073c3.01,2.97,4.877,7.253,5.592,12.876c0.508,3.948,0.35,7.364-0.42,10.257
		c-0.779,2.907-1.963,5.083-3.584,6.552c-1.596,1.471-3.209,2.32-4.846,2.519c-3.24,0.405-6.178-1.145-8.816-4.701
		C314.428,620.209,313.014,616.437,312.434,611.9"/>
	<path d="M340.736,608.327c1.184,4.512,2.686,8.07,4.576,10.644c1.541,2.178,3.225,3.043,5.092,2.558
		c0.865-0.224,1.684-0.85,2.414-1.875c0.73-1.031,1.121-2.517,1.137-4.503c0.031-2.97-0.619-6.998-1.922-12.051
		c-0.979-3.766-2.178-6.799-3.615-9.11c-1.064-1.7-2.168-2.828-3.297-3.368c-0.803-0.366-1.684-0.429-2.637-0.184
		c-1.096,0.286-1.963,1.033-2.574,2.232c-0.811,1.636-1.064,3.964-0.738,6.95C339.498,602.615,340.006,605.507,340.736,608.327
		 M335.787,608.921c-0.977-3.757-1.238-7.133-0.803-10.143c0.43-2.988,1.447-5.403,2.988-7.222c1.191-1.414,2.572-2.336,4.129-2.725
		c2.543-0.658,5.15,0.049,7.85,2.113c3.352,2.542,5.734,6.539,7.15,11.995c0.982,3.812,1.27,7.205,0.855,10.16
		c-0.42,2.962-1.332,5.251-2.74,6.902c-1.404,1.637-2.898,2.669-4.504,3.075c-3.162,0.793-6.273-0.366-9.324-3.545
		C338.799,616.867,336.939,613.323,335.787,608.921"/>
	<path d="M363.305,601.527c1.754,4.353,3.701,7.689,5.869,10.023c1.82,1.963,3.607,2.599,5.387,1.908
		c0.834-0.334,1.557-1.05,2.162-2.177c0.604-1.096,0.801-2.621,0.57-4.592c-0.35-2.956-1.502-6.855-3.416-11.732
		c-1.445-3.59-3.018-6.466-4.734-8.579c-1.271-1.558-2.502-2.542-3.686-2.939c-0.857-0.263-1.73-0.206-2.639,0.151
		c-1.064,0.412-1.826,1.254-2.271,2.533c-0.617,1.725-0.57,4.051,0.127,6.99C361.359,596.029,362.248,598.841,363.305,601.527
		 M358.475,602.75c-1.439-3.601-2.121-6.928-2.059-9.955c0.064-3.033,0.748-5.551,2.043-7.528c1.018-1.564,2.279-2.638,3.773-3.227
		c2.445-0.968,5.123-0.587,8.039,1.112c3.654,2.114,6.514,5.791,8.602,11.024c1.453,3.68,2.17,7.007,2.121,9.985
		c-0.047,2.973-0.65,5.363-1.842,7.167c-1.207,1.817-2.559,3.017-4.1,3.623c-3.027,1.199-6.26,0.403-9.699-2.36
		C362.455,610.25,360.158,606.985,358.475,602.75"/>
	<path d="M425.955,538.478c-1.541-2.78-2.35-5.394-2.43-7.856c-0.08-2.461,0.746-4.805,2.486-7.021
		c2.145-2.725,4.678-4.124,7.602-4.187c2.193-0.055,4.035,0.492,5.545,1.684c2.486,1.938,3.82,5.521,4.004,10.708
		c2.486-1.437,4.908-2.105,7.268-1.977c2.367,0.125,4.584,0.992,6.648,2.612c2.939,2.329,4.768,5.267,5.449,8.841
		c0.875,4.656-0.484,9.319-4.129,13.942c-1.812,2.31-3.322,3.637-4.545,4.01c-1.225,0.392-2.162,0.326-2.811-0.181
		c-0.479-0.375-0.764-0.922-0.812-1.614c-0.062-0.675,0.127-1.293,0.564-1.851c0.326-0.412,0.723-0.793,1.184-1.119
		c0.318-0.215,1.137-0.629,2.463-1.208c1.303-0.595,2.168-1.04,2.574-1.342c0.666-0.478,1.277-1.063,1.842-1.772
		c1.336-1.706,1.844-3.718,1.518-6.013c-0.326-2.312-1.414-4.186-3.217-5.607c-1.311-1.042-2.844-1.757-4.545-2.154
		c-1.303-0.302-2.383-0.373-3.271-0.246c-1.24,0.199-2.629,0.7-4.146,1.533c-1.541,0.835-2.82,1.899-3.838,3.211l-0.643,0.792
		l-0.746-0.587c0.873-1.462,1.42-3.17,1.691-5.106c0.246-1.946,0.08-3.663-0.549-5.142c-0.65-1.478-1.619-2.73-2.955-3.766
		c-1.715-1.349-3.543-1.914-5.449-1.666c-1.898,0.246-3.496,1.168-4.75,2.787c-2.051,2.581-2.367,5.854-0.945,9.78L425.955,538.478z
		"/>
	<path d="M447.744,491.024l3.535,4.812l-6.338,11.399l3.701,5.314c3.463-4.527,7.482-7.428,12.018-8.674
		c3.916-1.063,7.586-0.644,11.002,1.263c2.004,1.104,3.623,2.534,4.869,4.281c1.232,1.756,2.113,3.582,2.613,5.467
		c0.51,1.896,0.717,3.788,0.605,5.711c-0.166,2.707-0.873,5.188-2.129,7.451c-1.256,2.263-2.574,3.701-3.924,4.306
		c-1.336,0.602-2.479,0.658-3.416,0.134c-0.525-0.294-0.852-0.763-1.018-1.413c-0.166-0.66-0.062-1.305,0.295-1.963
		c0.27-0.469,0.588-0.857,0.928-1.145c0.352-0.269,1.074-0.684,2.178-1.216c1.748-0.857,3.02-2.008,3.812-3.447
		c1.215-2.169,1.445-4.535,0.723-7.107c-0.723-2.559-2.271-4.506-4.646-5.825c-2.289-1.262-4.838-1.723-7.643-1.357
		c-2.805,0.373-5.449,1.54-7.967,3.543c-1.977,1.565-3.996,4.052-6.076,7.483l-10.676-15.451L447.744,491.024z"/>
	<polygon points="452.025,474.12 489.117,506.037 488.146,508.412 451.059,476.487 	"/>
	<path d="M476.857,477.717c5.768,1.533,10.652,2.074,14.68,1.628c3.385-0.372,5.387-1.699,5.99-4.034
		c0.301-1.12,0.117-2.398-0.572-3.859c-0.684-1.463-2.113-2.805-4.289-4.061c-3.289-1.874-8.166-3.686-14.609-5.387
		c-4.789-1.271-8.904-1.842-12.352-1.707c-2.566,0.127-4.496,0.636-5.814,1.541c-0.889,0.675-1.502,1.597-1.828,2.789
		c-0.373,1.404-0.055,2.818,0.898,4.24c1.311,1.939,3.742,3.654,7.268,5.173C469.756,475.534,473.291,476.773,476.857,477.717
		 M474.475,483.572c-4.781-1.271-8.697-3.09-11.771-5.448c-3.059-2.353-5.123-4.95-6.182-7.786
		c-0.842-2.223-1.016-4.306-0.477-6.283c0.844-3.209,3.242-5.647,7.213-7.34c4.895-2.112,10.82-2.248,17.764-0.404
		c4.861,1.278,8.801,3.09,11.826,5.377c3.027,2.312,5.012,4.751,5.982,7.341c0.953,2.58,1.158,4.869,0.635,6.878
		c-1.078,4.012-4.32,6.704-9.738,8.112C485.168,485.208,480.074,485.049,474.475,483.572"/>
	<path d="M483.309,449.105c5.941,0.588,10.852,0.358,14.76-0.716c3.289-0.889,5.051-2.541,5.273-4.932
		c0.135-1.145-0.27-2.384-1.168-3.726c-0.898-1.327-2.535-2.439-4.883-3.32c-3.545-1.344-8.645-2.359-15.285-3.034
		c-4.9-0.485-9.057-0.398-12.439,0.285c-2.527,0.508-4.354,1.334-5.498,2.423c-0.777,0.802-1.238,1.826-1.365,3.042
		c-0.15,1.445,0.365,2.796,1.549,4.053c1.613,1.698,4.266,3.018,7.982,3.962C475.953,448.072,479.654,448.731,483.309,449.105
		 M481.885,455.254c-4.916-0.511-9.078-1.678-12.479-3.52c-3.398-1.844-5.854-4.092-7.322-6.721
		c-1.201-2.049-1.668-4.091-1.479-6.125c0.334-3.304,2.318-6.108,5.957-8.389c4.512-2.858,10.344-3.932,17.492-3.209
		c5.004,0.518,9.184,1.66,12.52,3.464c3.352,1.804,5.703,3.893,7.055,6.283c1.35,2.398,1.93,4.639,1.715,6.713
		c-0.422,4.115-3.195,7.292-8.324,9.531C492.689,455.182,487.654,455.84,481.885,455.254"/>
	<path d="M297.733,645.422c-3.367,0-6.734-0.086-10.11-0.229l-0.771,17.213c3.618,0.16,7.253,0.255,10.882,0.255l1.058-0.017
		l-0.156-17.229L297.733,645.422z"/>
	<path d="M309.732,645.104l0.93,17.199c3.955-0.206,7.904-0.516,11.859-0.905l-1.756-17.151
		C317.098,644.612,313.412,644.907,309.732,645.104"/>
	<path d="M263.151,660.174c3.929,0.563,7.864,1.041,11.816,1.404l1.613-17.164c-3.67-0.334-7.336-0.764-10.989-1.296
		L263.151,660.174z"/>
	<path d="M331.736,642.84l2.613,17.03c3.918-0.594,7.816-1.284,11.725-2.089l-3.447-16.887
		C339.014,641.633,335.383,642.277,331.736,642.84"/>
	<path d="M239.776,655.639c3.85,0.944,7.727,1.794,11.622,2.566l3.29-16.921c-3.631-0.707-7.217-1.493-10.804-2.383L239.776,655.639
		z"/>
	<path d="M353.414,638.432l4.266,16.697c3.838-0.984,7.658-2.064,11.447-3.241l-5.076-16.449
		C360.516,636.527,356.965,637.519,353.414,638.432"/>
	<path d="M216.947,648.824c3.758,1.316,7.53,2.558,11.332,3.693l4.921-16.523c-3.515-1.049-7.038-2.191-10.517-3.416
		L216.947,648.824z"/>
	<path d="M374.535,631.903l5.887,16.189c3.719-1.352,7.42-2.805,11.09-4.353l-6.68-15.881
		C381.424,629.298,377.984,630.641,374.535,631.903"/>
	<path d="M194.908,639.792c3.602,1.691,7.232,3.288,10.918,4.789l6.529-15.951c-3.408-1.382-6.791-2.867-10.128-4.432
		L194.908,639.792z"/>
	<path d="M394.896,623.325l7.482,15.521c3.559-1.716,7.094-3.527,10.598-5.427l-8.246-15.148
		C401.488,620.051,398.217,621.734,394.896,623.325"/>
	<path d="M173.87,628.629c3.423,2.042,6.875,3.988,10.369,5.848l8.087-15.229c-3.253-1.723-6.466-3.525-9.64-5.431L173.87,628.629z"
		/>
	<path d="M154.034,615.419c3.213,2.375,6.466,4.655,9.762,6.841l9.541-14.331c-3.059-2.041-6.07-4.17-9.056-6.364L154.034,615.419z"
		/>
	<path d="M147.17,587.554l-11.558,12.767c2.951,2.684,5.963,5.272,9.021,7.782l10.922-13.328
		C152.711,592.447,149.911,590.041,147.17,587.554"/>
	<path d="M445.662,589.7l11.367,12.955c3.004-2.621,5.92-5.313,8.756-8.062l-11.979-12.392
		C451.168,584.758,448.453,587.252,445.662,589.7"/>
	<path d="M131.518,571.92l-12.754,11.582c2.693,2.955,5.417,5.831,8.214,8.618l12.177-12.192
		C136.562,577.338,134.008,574.653,131.518,571.92"/>
	<path d="M461.566,574.329l12.576,11.78c2.723-2.915,5.377-5.871,7.926-8.882l-13.123-11.161
		C466.562,568.862,464.102,571.628,461.566,574.329"/>
	<path d="M117.449,554.833l-13.813,10.297c2.352,3.161,4.811,6.298,7.336,9.373l13.302-10.955
		C121.921,560.689,119.646,557.774,117.449,554.833"/>
	<path d="M475.889,557.462l13.664,10.478c2.439-3.152,4.766-6.354,7.021-9.602l-14.156-9.82
		C480.32,551.545,478.145,554.524,475.889,557.462"/>
	<path d="M105.133,536.478l-14.763,8.887c2.041,3.394,4.162,6.737,6.382,10.04l14.319-9.594
		C109.006,542.735,107.028,539.614,105.133,536.478"/>
	<path d="M488.473,539.274l14.646,9.078c2.098-3.376,4.1-6.807,6.037-10.264l-15.084-8.348
		C492.301,532.95,490.418,536.126,488.473,539.274"/>
	<path d="M94.683,516.991l-15.568,7.387c1.691,3.576,3.482,7.118,5.369,10.63l15.189-8.144
		C97.913,523.608,96.256,520.319,94.683,516.991"/>
	<path d="M499.188,519.938l15.473,7.578c1.758-3.559,3.408-7.181,4.965-10.82l-15.814-6.83
		C502.357,513.256,500.807,516.61,499.188,519.938"/>
	<path d="M86.219,496.576l-16.229,5.808c1.335,3.726,2.769,7.434,4.291,11.113l15.918-6.604
		C88.781,503.471,87.455,500.046,86.219,496.576"/>
	<path d="M507.934,499.618l16.141,6.021c1.398-3.733,2.693-7.482,3.895-11.256l-16.43-5.211
		C510.436,492.675,509.221,496.155,507.934,499.618"/>
	<path d="M79.825,475.415l-16.717,4.17c0.953,3.844,2.009,7.666,3.157,11.472l16.495-4.974
		C81.695,482.547,80.711,478.981,79.825,475.415"/>
	<path d="M514.639,478.536l16.666,4.408c1.016-3.836,1.938-7.688,2.746-11.581l-16.848-3.583
		C516.432,471.379,515.592,474.977,514.639,478.536"/>
	<path d="M75.544,453.729l-17.047,2.493c0.568,3.933,1.243,7.849,2.013,11.749l16.904-3.353
		C76.7,461.004,76.072,457.374,75.544,453.729"/>
	<path d="M519.244,456.914l16.994,2.741c0.641-3.925,1.182-7.849,1.609-11.798l-17.109-1.922
		C520.318,449.613,519.816,453.26,519.244,456.914"/>
	<path d="M73.414,431.708l-17.213,0.818c0.195,3.972,0.472,7.927,0.854,11.867l17.154-1.652
		C73.852,439.065,73.585,435.402,73.414,431.708"/>
	<path d="M522.111,423.868c-0.045,3.693-0.18,7.363-0.404,11.034l17.191,1.096c0.252-3.956,0.395-7.936,0.451-11.899
		L522.111,423.868z"/>
	<path d="M73.442,409.593l-17.202-0.882c-0.199,3.972-0.302,7.936-0.311,11.907l17.226,0.023
		C73.176,416.965,73.256,413.271,73.442,409.593"/>
	<path d="M521.994,412.802l17.223-0.604c-0.145-3.979-0.381-7.935-0.732-11.892l-17.16,1.463
		C521.645,405.439,521.865,409.117,521.994,412.802"/>
	<path d="M75.651,387.582l-17.044-2.558c-0.591,3.932-1.08,7.872-1.472,11.82l17.138,1.708
		C74.641,394.89,75.102,391.228,75.651,387.582"/>
	<path d="M520.117,390.759l17.082-2.297c-0.533-3.924-1.162-7.863-1.877-11.748l-16.936,3.122
		C519.047,383.467,519.625,387.105,520.117,390.759"/>
	<path d="M79.996,365.888l-16.718-4.211c-0.965,3.86-1.847,7.721-2.626,11.622l16.904,3.375
		C78.272,373.061,79.095,369.463,79.996,365.888"/>
	<path d="M516.092,369.026l16.785-3.972c-0.922-3.853-1.938-7.697-3.035-11.511l-16.57,4.773
		C514.305,361.876,515.242,365.443,516.092,369.026"/>
	<path d="M86.438,344.734l-16.209-5.846c-1.334,3.757-2.598,7.521-3.75,11.303l16.479,5.036
		C84.03,351.7,85.204,348.206,86.438,344.734"/>
	<path d="M509.943,347.784l16.291-5.615c-1.287-3.75-2.666-7.466-4.146-11.168l-15.996,6.417
		C507.457,340.842,508.744,344.313,509.943,347.784"/>
	<path d="M94.955,324.319l-15.562-7.41c-1.708,3.598-3.336,7.228-4.859,10.881l15.912,6.627
		C91.86,331.008,93.365,327.648,94.955,324.319"/>
	<path d="M501.713,327.266l15.658-7.196c-1.654-3.599-3.385-7.15-5.236-10.701l-15.281,7.977
		C498.561,320.618,500.197,323.921,501.713,327.266"/>
	<path d="M105.428,304.841l-14.739-8.913c-2.066,3.424-4.032,6.872-5.907,10.351l15.165,8.174
		C101.701,311.211,103.525,308.002,105.428,304.841"/>
	<path d="M491.506,307.669l14.871-8.723c-2.002-3.407-4.1-6.791-6.277-10.12l-14.418,9.429
		C487.717,301.355,489.648,304.492,491.506,307.669"/>
	<path d="M117.803,286.507l-13.797-10.326c-2.392,3.186-4.695,6.434-6.908,9.723l14.295,9.628
		C113.442,292.481,115.579,289.471,117.803,286.507"/>
	<path d="M479.398,289.168l13.936-10.136c-2.305-3.202-4.729-6.354-7.223-9.453l-13.432,10.804
		C475.006,283.258,477.238,286.19,479.398,289.168"/>
	<path d="M131.907,269.484l-12.69-11.652c-2.689,2.963-5.31,5.949-7.84,9l13.27,10.994
		C126.986,274.989,129.412,272.208,131.907,269.484"/>
	<path d="M465.531,271.923l12.898-11.431c-2.66-2.995-5.354-5.895-8.125-8.723L458,263.821
		C460.559,266.451,463.076,269.143,465.531,271.923"/>
	<path d="M147.648,253.922l-11.519-12.82c-2.962,2.66-5.85,5.377-8.662,8.15l12.125,12.272
		C142.197,258.935,144.883,256.41,147.648,253.922"/>
	<path d="M461.773,243.476c-2.916-2.724-5.895-5.346-8.93-7.887l-11.072,13.202c2.818,2.352,5.568,4.798,8.285,7.308
		L461.773,243.476z"/>
	<path d="M164.805,239.958l-10.216-13.87c-3.173,2.335-6.322,4.759-9.42,7.284l10.891,13.346
		C158.931,244.39,161.851,242.127,164.805,239.958"/>
	<path d="M433.867,221.195l-9.725,14.221c3.045,2.072,6.039,4.226,8.979,6.465l10.406-13.734
		C440.365,225.739,437.133,223.419,433.867,221.195"/>
	<path d="M183.231,227.741l-8.787-14.807c-3.408,2.018-6.759,4.131-10.084,6.323l9.509,14.361
		C176.951,231.585,180.073,229.624,183.231,227.741"/>
	<path d="M405.277,223.873c3.234,1.756,6.436,3.614,9.582,5.544l8.984-14.703c-3.387-2.082-6.816-4.075-10.305-5.965
		L405.277,223.873z"/>
	<path d="M195.499,201.804c-3.594,1.668-7.156,3.44-10.664,5.291l8.043,15.235c3.273-1.723,6.565-3.359,9.894-4.908L195.499,201.804
		z"/>
	<path d="M402.943,203.291c-3.584-1.724-7.189-3.369-10.836-4.901l-6.736,15.863c3.385,1.43,6.752,2.955,10.09,4.552
		L402.943,203.291z"/>
	<path d="M217.539,192.813c-3.733,1.311-7.443,2.717-11.137,4.218l6.498,15.967c3.427-1.398,6.875-2.717,10.347-3.925
		L217.539,192.813z"/>
	<path d="M381.02,193.996c-3.734-1.366-7.49-2.629-11.289-3.812l-5.131,16.451c3.535,1.097,7.021,2.28,10.484,3.551L381.02,193.996z
		"/>
	<path d="M240.377,186.053c-3.848,0.938-7.685,1.962-11.495,3.098l4.89,16.515c3.54-1.049,7.102-1.994,10.672-2.876L240.377,186.053
		z"/>
	<path d="M358.283,186.918c-3.852-0.985-7.721-1.891-11.605-2.701l-3.479,16.889c3.6,0.738,7.197,1.581,10.771,2.502
		L358.283,186.918z"/>
	<path d="M263.759,181.573c-3.928,0.563-7.84,1.198-11.745,1.954l3.237,16.92c3.626-0.699,7.273-1.286,10.907-1.804L263.759,181.573
		z"/>
	<path d="M334.953,182.105c-3.924-0.596-7.855-1.12-11.805-1.541l-1.818,17.134c3.662,0.397,7.34,0.866,10.971,1.438
		L334.953,182.105z"/>
	<path d="M287.466,179.413c-3.952,0.182-7.916,0.436-11.875,0.801l1.552,17.158c3.678-0.341,7.368-0.579,11.038-0.73
		L287.466,179.413z"/>
	<path d="M311.281,179.603c-3.971-0.215-7.936-0.351-11.902-0.374l-0.131,17.222c3.701,0.031,7.387,0.144,11.049,0.357
		L311.281,179.603z"/>
	<path d="M157.378,316.9l11.979,9.429l1.358,1.104c0.993,0.778,1.947,1.111,2.848,1.009c0.894-0.104,1.748-0.652,2.522-1.66
		c1.156-1.461,1.903-3.075,2.221-4.83c0.318-1.747,0.123-3.446-0.592-5.084c-0.734-1.636-1.847-3.05-3.376-4.25
		c-1.744-1.366-3.629-2.2-5.655-2.486c-2.019-0.277-3.869,0.071-5.53,1.049C161.485,312.173,159.575,314.072,157.378,316.9
		 M155.222,315.208c2.05-2.605,3.269-4.766,3.662-6.466c0.381-1.7,0.306-3.305-0.239-4.814c-0.552-1.477-1.652-2.89-3.3-4.187
		c-1.652-1.302-3.265-2.032-4.826-2.223c-1.585-0.167-3.122,0.126-4.619,0.912c-1.505,0.771-3.305,2.519-5.394,5.212
		L155.222,315.208z M163.852,305.762c3.619-2.891,6.566-4.591,8.882-5.114c3.28-0.74,6.263-0.064,8.924,2.024
		c2.824,2.216,4.253,5.18,4.317,8.874c0.043,4.535-2.026,9.429-6.188,14.727l-14.917,18.993l-1.018-0.802
		c1.351-1.732,2.113-3.027,2.276-3.901c0.163-0.856,0.091-1.627-0.226-2.278c-0.326-0.652-1.506-1.771-3.515-3.369l-24.265-19.057
		c-2.017-1.589-3.384-2.463-4.107-2.622c-0.722-0.166-1.489-0.055-2.279,0.318c-0.811,0.373-1.879,1.431-3.222,3.139l-1.024-0.818
		l14.08-17.914c3.368-4.273,6.136-6.997,8.296-8.188c2.165-1.185,4.402-1.693,6.729-1.534c2.327,0.175,4.353,0.921,6.052,2.265
		c1.804,1.422,2.904,3.32,3.269,5.735C166.307,298.654,165.616,301.831,163.852,305.762"/>
	<path d="M182.277,262.478l11.046,15.896l0.783-0.541c2.478-1.723,3.733-3.757,3.757-6.068c0.04-2.335-0.846-5.123-2.653-8.372
		l1.101-0.747l14.203,20.423l-1.084,0.771c-1.788-2.073-3.54-3.551-5.263-4.464c-1.731-0.906-3.252-1.264-4.571-1.073
		c-1.311,0.19-2.904,0.938-4.767,2.232l7.646,11.002c1.497,2.145,2.498,3.393,3.01,3.741c0.521,0.358,1.14,0.509,1.847,0.47
		c0.698-0.033,1.624-0.446,2.741-1.216l2.327-1.621c3.65-2.542,5.986-5.417,7.002-8.634c1.024-3.226,0.814-6.88-0.627-11.002
		l1.061-0.739l6.871,13.624l-33.732,23.456l-0.731-1.064l1.291-0.912c1.131-0.771,1.907-1.614,2.319-2.495
		c0.303-0.612,0.366-1.342,0.188-2.185c-0.111-0.604-0.846-1.883-2.213-3.844l-17.853-25.658c-1.219-1.779-2.025-2.828-2.399-3.171
		c-0.659-0.531-1.375-0.802-2.148-0.81c-1.107-0.04-2.276,0.397-3.555,1.279l-1.293,0.89l-0.732-1.057l32.66-22.728l8.02,11.551
		l-1.081,0.755c-2.53-2.431-4.71-3.908-6.573-4.439c-1.862-0.525-3.912-0.438-6.164,0.269c-1.311,0.406-3.443,1.637-6.403,3.687
		L182.277,262.478z"/>
	<path d="M232.057,233.182l31.015,21.376l-5.945-19.557c-0.831-2.725-1.784-4.449-2.848-5.181c-1.474-0.96-3.464-1.039-5.979-0.229
		l-0.373-1.24l15.022-4.575l0.381,1.255c-1.843,0.818-3.05,1.542-3.587,2.122c-0.544,0.595-0.854,1.382-0.966,2.382
		c-0.099,0.992,0.179,2.575,0.839,4.72l11.525,37.866l-1.146,0.349l-42.285-28.517l8.794,28.915c0.807,2.613,1.938,4.202,3.415,4.75
		c1.474,0.556,2.987,0.588,4.524,0.135l1.072-0.333l0.386,1.239l-16.134,4.908l-0.389-1.239c2.506-0.778,4.099-1.826,4.767-3.138
		c0.675-1.31,0.651-3.169-0.08-5.584l-9.771-32.084l-1.333-0.913c-1.334-0.922-2.423-1.454-3.269-1.621
		c-0.87-0.144-1.986-0.031-3.392,0.342l-0.373-1.255L232.057,233.182z"/>
	<path d="M322.086,222.617l-0.199,12.877l-1.264-0.023c-0.699-2.971-1.494-5.124-2.383-6.442c-0.906-1.304-2.129-2.368-3.701-3.153
		c-0.891-0.437-2.439-0.668-4.654-0.716l-3.543-0.056l-0.598,36.675c-0.031,2.424,0.076,3.949,0.334,4.553
		c0.254,0.619,0.775,1.152,1.545,1.628c0.775,0.47,1.84,0.708,3.207,0.731l1.57,0.023l-0.016,1.303l-24.898-0.404l0.015-1.303
		l1.585,0.023c1.383,0.023,2.498-0.199,3.345-0.675c0.608-0.326,1.104-0.858,1.462-1.66c0.277-0.548,0.425-2.019,0.457-4.425
		l0.604-36.652l-3.443-0.055c-3.193-0.049-5.529,0.579-7.003,1.93c-2.064,1.852-3.399,4.528-3.995,8.016l-1.314-0.024l0.193-12.86
		L322.086,222.617z"/>
	<path d="M369.842,267.879l-6.855,15.323l-40.131-13.035l0.391-1.239l1.508,0.492c1.311,0.421,2.447,0.532,3.4,0.334
		c0.668-0.119,1.295-0.524,1.852-1.176c0.412-0.452,0.984-1.803,1.723-4.074l9.66-29.75c0.762-2.311,1.096-3.797,1.047-4.448
		c-0.062-0.659-0.396-1.326-1-2.01c-0.598-0.676-1.541-1.208-2.812-1.62l-1.484-0.493l0.389-1.23l24.109,7.824l-0.391,1.231
		l-1.979-0.636c-1.311-0.43-2.445-0.524-3.398-0.325c-0.676,0.135-1.295,0.517-1.883,1.16c-0.412,0.443-1.002,1.818-1.715,4.074
		l-9.367,28.82c-0.754,2.296-1.088,3.82-1.023,4.543c0.055,0.723,0.412,1.351,1.096,1.922c0.477,0.39,1.795,0.914,3.949,1.62
		l3.764,1.216c2.393,0.771,4.537,1.001,6.412,0.683c1.873-0.324,3.684-1.207,5.439-2.66c1.764-1.445,3.742-3.766,5.934-6.975
		L369.842,267.879z"/>
	<path d="M406.795,258.125l-11.137,15.824l0.771,0.556c2.469,1.74,4.797,2.217,6.998,1.445c2.201-0.77,4.52-2.558,6.934-5.361
		l1.09,0.771l-14.324,20.352l-1.086-0.771c1.332-2.375,2.119-4.527,2.391-6.458c0.246-1.923,0.062-3.479-0.549-4.664
		c-0.635-1.174-1.891-2.414-3.734-3.725l-7.721,10.963c-1.5,2.136-2.336,3.503-2.494,4.114c-0.158,0.604-0.088,1.238,0.199,1.906
		c0.277,0.645,0.977,1.366,2.08,2.145l2.328,1.637c3.623,2.55,7.125,3.766,10.502,3.622c3.367-0.15,6.736-1.597,10.119-4.361
		l1.064,0.755l-10.453,11.113l-33.584-23.663l0.746-1.058l1.295,0.905c1.119,0.794,2.168,1.232,3.137,1.319
		c0.691,0.079,1.383-0.111,2.113-0.557c0.541-0.325,1.492-1.453,2.859-3.407l18.016-25.562c1.238-1.764,1.953-2.867,2.129-3.345
		c0.277-0.794,0.303-1.565,0.049-2.287c-0.365-1.049-1.168-2.026-2.432-2.907l-1.287-0.906l0.746-1.056l32.523,22.909l-8.088,11.494
		l-1.098-0.771c1.432-3.201,2.084-5.767,1.932-7.682c-0.152-1.938-0.93-3.837-2.367-5.696c-0.834-1.096-2.701-2.692-5.648-4.766
		L406.795,258.125z"/>
	<path d="M471.266,321.102l-1.031,0.793c-1.113-1.127-2.193-1.811-3.266-2.063c-1.486-0.334-4.734-0.19-9.74,0.437l-19.953,2.184
		l-9.168,6.936c-1.961,1.478-3.09,2.503-3.408,3.066c-0.332,0.563-0.436,1.287-0.342,2.168c0.105,0.882,0.533,1.819,1.289,2.828
		l1.611,2.12l-1.033,0.787l-16.117-21.266l1.033-0.794l1.502,2.001c0.85,1.114,1.715,1.845,2.605,2.201
		c0.627,0.285,1.357,0.334,2.207,0.136c0.604-0.136,1.852-0.922,3.758-2.367l7.594-5.752l9.5-21.209
		c1.852-4.202,2.789-6.88,2.805-8.03c0.033-1.161-0.412-2.352-1.303-3.575l1.018-0.795L454.6,299.09l-1.041,0.762l-0.611-0.786
		c-0.834-1.111-1.572-1.763-2.23-1.954c-0.645-0.198-1.137-0.166-1.504,0.104c-0.666,0.508-1.785,2.533-3.35,6.068l-7.365,16.348
		l16.578-1.843c4.092-0.405,6.586-0.978,7.5-1.66c0.492-0.374,0.73-0.945,0.707-1.685c-0.008-0.984-0.611-2.351-1.818-4.123
		l1.047-0.802L471.266,321.102z"/>
	<polygon points="113.958,370.313 122.109,358.65 122.851,372.853 136.466,376.985 123.201,382.085 123.459,396.311
		114.515,385.253 101.059,389.917 108.811,377.986 100.221,366.634 	"/>
	<polygon points="481.918,371.497 496.115,370.653 485.432,380.051 490.633,393.286 478.383,386.042 467.396,395.082
		470.527,381.186 458.531,373.521 472.711,372.203 476.279,358.428 	"/>
	<path d="M260.613,396.987l0.394,15.84h-1.442c-0.676-3.964-2.343-7.165-4.993-9.588c-2.652-2.415-5.532-3.623-8.606-3.623
		c-2.384,0-4.27,0.651-5.664,1.916c-1.382,1.271-2.088,2.746-2.088,4.399c0,1.049,0.262,1.987,0.731,2.796
		c0.689,1.112,1.775,2.192,3.272,3.265c1.097,0.771,3.634,2.138,7.606,4.1c5.561,2.732,9.313,5.33,11.248,7.754
		c1.918,2.414,2.88,5.21,2.88,8.347c0,3.973-1.554,7.381-4.643,10.256c-3.094,2.86-7.031,4.298-11.796,4.298
		c-1.489,0-2.912-0.167-4.246-0.46c-1.326-0.312-3.002-0.875-5.013-1.724c-1.119-0.462-2.04-0.7-2.764-0.7
		c-0.613,0-1.259,0.238-1.935,0.7c-0.675,0.468-1.231,1.183-1.652,2.151h-1.294v-17.96h1.294c1.033,5.044,3.019,8.896,5.955,11.559
		c2.927,2.637,6.084,3.972,9.484,3.972c2.61,0,4.694-0.708,6.255-2.137c1.545-1.423,2.328-3.082,2.328-4.982
		c0-1.118-0.302-2.207-0.897-3.256c-0.583-1.049-1.506-2.05-2.717-3.002c-1.212-0.945-3.361-2.186-6.451-3.687
		c-4.317-2.137-7.427-3.956-9.322-5.457c-1.894-1.485-3.352-3.153-4.369-5.013c-1.017-1.834-1.521-3.868-1.521-6.094
		c0-3.787,1.394-6.997,4.174-9.666c2.78-2.66,6.288-4.004,10.51-4.004c1.545,0,3.034,0.19,4.492,0.572
		c1.096,0.278,2.439,0.786,4.016,1.549c1.572,0.771,2.677,1.136,3.304,1.136c0.608,0,1.097-0.183,1.455-0.557
		c0.342-0.364,0.675-1.271,0.969-2.7H260.613z"/>
	<path d="M293.543,399.657c-4.353,0-7.653,2.207-9.926,6.655c-1.847,3.647-2.771,8.882-2.771,15.705
		c0,8.118,1.422,14.115,4.284,17.992c1.979,2.709,4.768,4.067,8.338,4.067c2.41,0,4.417-0.58,6.03-1.756
		c2.057-1.501,3.656-3.884,4.805-7.173c1.141-3.273,1.725-7.554,1.725-12.837c0-6.299-0.592-10.994-1.764-14.132
		c-1.164-3.105-2.662-5.314-4.455-6.602C297.984,400.299,295.904,399.657,293.543,399.657 M293.118,397.409
		c7.568-0.279,13.724,1.922,18.458,6.624c4.734,4.703,7.102,10.58,7.102,17.635c0,6.03-1.764,11.336-5.299,15.911
		c-4.672,6.084-11.281,9.128-19.804,9.128c-8.56,0-15.164-2.9-19.847-8.707c-3.685-4.576-5.532-10.001-5.532-16.292
		c0-7.069,2.399-12.948,7.209-17.658C280.195,399.346,286.117,397.129,293.118,397.409"/>
	<path d="M348.49,429.492l-7.102-16.371l-7.285,16.371H348.49z M349.666,432.082h-16.793l-2.002,4.623
		c-0.65,1.549-0.971,2.828-0.971,3.83c0,1.326,0.541,2.303,1.605,2.946c0.635,0.365,2.186,0.651,4.672,0.841v1.296h-15.809v-1.296
		c1.701-0.252,3.082-0.968,4.193-2.136c1.111-1.144,2.463-3.543,4.076-7.156l17-37.939h0.658l17.143,38.987
		c1.637,3.686,2.988,6.028,4.035,6.974c0.787,0.739,1.922,1.137,3.369,1.271v1.296h-23.006v-1.296h0.953
		c1.85,0,3.146-0.252,3.893-0.777c0.525-0.382,0.779-0.905,0.779-1.612c0-0.421-0.08-0.858-0.207-1.295
		c-0.047-0.207-0.414-1.08-1.064-2.638L349.666,432.082z"/>
	<path d="M298.369,508.252c-47.983,0-87.018-39.027-87.018-86.998c0-47.972,39.035-86.998,87.018-86.998
		c47.975,0,87.002,39.026,87.002,86.998C385.371,469.225,346.344,508.252,298.369,508.252 M446.713,654.289l-43.984-59.379
		l6.77-4.663l-62.406-84.861l2.883-2.12l62.635,84.804l-2,2.131l43.523,58.876l20.271-15.273l-42.426-58.092l-7.516,4.004
		l-61.477-86.157l2.051-1.945c19.523-18.524,30.271-43.516,30.271-70.357c0-53.469-43.49-96.967-96.939-96.967
		c-53.464,0-96.959,43.498-96.959,96.967c0,53.461,43.495,96.951,96.959,96.951c13.373,0,26.354-2.7,38.586-7.999l2.383-1.033
		l62.891,85.643l-5.449,5.465l44.316,58.632l9.604-7.245L446.713,654.289z"/>
</g>
</svg>
