<?xml version="1.0" encoding="utf-8"?>
<!-- Generator: Adobe Illustrator 16.0.4, SVG Export Plug-In . SVG Version: 6.00 Build 0)  -->
<!DOCTYPE svg PUBLIC "-//W3C//DTD SVG 1.1//EN" "http://www.w3.org/Graphics/SVG/1.1/DTD/svg11.dtd">
<svg version="1.1" id="Livello_1" xmlns="http://www.w3.org/2000/svg" xmlns:xlink="http://www.w3.org/1999/xlink" x="0px" y="0px"
	 width="595.28px" height="841.89px" viewBox="0 0 595.28 841.89" enable-background="new 0 0 595.28 841.89" xml:space="preserve">
<g>
	<path fill="#C6C7C8" d="M297.64,19.687l-64.154,56.542V47.153h-42.998v66.975l-79.996,70.501h54.028v155.853l66.217,48.107v37.992
		h15.081v346.353l21.66,24.158V424.596h16.61v391.018l5.911,6.59l59.471-64.565v-20.282l-26.055-14.159l26.055-23.32v-19.092
		l-26.496-6.841l-1.928-29.898l28.424-13.442v-27.528l-29.766-11.583l-3.551-20.222l33.316-22.333V426.581h15.078v-37.994
		l66.217-48.105V184.628h54.021L297.64,19.687L297.64,19.687z M291.349,318.068h-51.793v-51.791h51.793V318.068L291.349,318.068z
		 M291.349,251.815h-51.793v-51.79h51.793V251.815L291.349,251.815z M355.732,318.068h-51.787v-51.791h51.787V318.068
		L355.732,318.068z M355.732,251.815h-51.787v-51.79h51.787V251.815L355.732,251.815z"/>
</g>
</svg>
