<?xml version="1.0" encoding="utf-8"?>
<!-- Generator: Adobe Illustrator 16.0.4, SVG Export Plug-In . SVG Version: 6.00 Build 0)  -->
<!DOCTYPE svg PUBLIC "-//W3C//DTD SVG 1.1//EN" "http://www.w3.org/Graphics/SVG/1.1/DTD/svg11.dtd">
<svg version="1.1" id="Livello_1" xmlns="http://www.w3.org/2000/svg" xmlns:xlink="http://www.w3.org/1999/xlink" x="0px" y="0px"
	 width="144.567px" height="144.566px" viewBox="0 0 144.567 144.566" enable-background="new 0 0 144.567 144.566"
	 xml:space="preserve">
<g>
	<path fill="#FFFFFF" d="M141.392,73.103c0-38.59-31.283-69.874-69.874-69.874c-38.59,0-69.874,31.284-69.874,69.874
		c0,38.591,31.284,69.874,69.874,69.874C110.108,142.977,141.392,111.693,141.392,73.103L141.392,73.103z M38.016,66.954V60.47
		h1.113l-0.03,6.724c0,0-0.05,0.217,0.072,0.385c0.167,0.217,0.625,0.341,1.257,0.341h2.311v1.112h-2.311
		c-1.04,0-1.765-0.275-2.158-0.807C37.906,67.724,37.966,67.178,38.016,66.954L38.016,66.954z M43.226,64.228l-3.698,0.263
		L38.125,44.52l3.698-0.261L43.226,64.228L43.226,64.228z M59.2,65.994c0,0,0.865-0.74,1.125-0.756
		C60.595,65.216,59.665,66.191,59.2,65.994L59.2,65.994z M100.948,40.618c0,4.773-3.865,8.647-8.641,8.647
		c-4.773,0-8.641-3.874-8.641-8.647c0-4.775,3.867-8.642,8.641-8.642C97.083,31.976,100.948,35.842,100.948,40.618L100.948,40.618z
		 M108.331,79.771c0.16,5.967-4.92,8.582-9.512,7.879c-11.061,2.492-17.629,10.021-19.113,21.291
		c-0.857,6.527-10.587,7.049-11.154,1.354v3.697H33.91V76.996h-4.651v-7.622h16.926c0.02-0.087,0.027-0.205,0.027-0.365
		c0.008-0.08,0.016-0.181,0.016-0.283c0.044-0.72,0.203-1.083,1.003-1.234c0.152-0.03,0.377-0.051,0.618-0.051v-0.684h9.011v1.287
		c0.226-0.016,0.416-0.058,0.516-0.19c0.037-0.05,0.037-0.175,0.037-0.291c0-0.197-0.007-0.421,0.138-0.595
		c0.19-0.225,0.545-0.378,0.792-0.372c0.028,0.008,0.051,0.022,0.073,0.03c0.058-0.087,0.115-0.175,0.183-0.254
		c0.556,0.109,1.989,0.258,1.844-1.271c-0.022,0.007-0.044,0.014-0.064,0.028l0.065-0.043c0,0.004,0,0.006,0,0.008
		c0.66-0.248,1.403-0.4,2.2-0.4c2.573,0,4.658,1.453,4.658,3.249h-9.316c0-0.378,0.11-0.728,0.285-1.053
		c-0.168,0.013-0.394,0.108-0.518,0.254c-0.072,0.094-0.072,0.261-0.072,0.421c0,0.161,0,0.335-0.093,0.458
		c-0.175,0.232-0.473,0.312-0.815,0.312c-0.225,0-0.465-0.029-0.705-0.08h-8.219v-0.529c-0.204-0.008-0.408,0.007-0.566,0.036
		c-0.632,0.116-0.742,0.341-0.778,0.982c-0.007,0.108-0.014,0.195-0.014,0.282c-0.008,0.138-0.016,0.255-0.038,0.35h30.646v7.63
		h-8.54v32.266c0.008-0.109,0.008-0.209,0.023-0.312C70.5,94.379,78.007,82.912,91.56,78.18c-0.254-3.938-1.055-7.817-1.723-11.713
		c-6.555,1.075-13.146,1.708-19.795,1.395c-5.706-0.268-5.691-9.164,0.058-8.894c6.329,0.297,12.549-0.27,18.778-1.331
		c0.131-10.355,16.402-10.115,16.678,0.502C105.745,65.428,108.144,72.455,108.331,79.771L108.331,79.771z M111.979,91.66
		c-2.004,1.541-4.768,0.408-4.883,0.357c-0.975-0.299-1.984-0.459-3.01-0.523v17.514h4.26c0.943,0,1.707,0.762,1.707,1.707
		c0,0.938-0.764,1.701-1.707,1.701H95.216c-0.945,0-1.709-0.764-1.709-1.701c0-0.945,0.764-1.707,1.709-1.707h4.621V91.682
		c-5.166,0.771-9.723,3.09-9.789,3.121c-0.168,0.084-0.334,0.121-0.508,0.121c-0.4,0-0.793-0.211-0.988-0.596
		c-0.283-0.545-0.074-1.221,0.479-1.504c0.43-0.211,10.625-5.414,18.814-2.9c0.115,0.051,1.811,0.713,2.783-0.035
		c0.828-0.648,1.111-2.342,0.793-4.789l-0.32-2.549c-1.256-10.111-1.309-10.503-0.828-28.207c0.021-0.618,0.559-1.125,1.148-1.083
		c0.617,0.016,1.098,0.525,1.082,1.143c-0.479,17.542-0.428,17.92,0.807,27.875l0.32,2.543
		C114.073,88.18,113.515,90.484,111.979,91.66L111.979,91.66z M60.443,65.101c0-0.003,0-0.005,0-0.007
		c0,0.004-0.002,0.004-0.001,0.008C60.442,65.101,60.442,65.101,60.443,65.101L60.443,65.101z"/>
</g>
</svg>
