<?xml version="1.0" encoding="utf-8"?>
<!-- Generator: Adobe Illustrator 16.0.4, SVG Export Plug-In . SVG Version: 6.00 Build 0)  -->
<!DOCTYPE svg PUBLIC "-//W3C//DTD SVG 1.1//EN" "http://www.w3.org/Graphics/SVG/1.1/DTD/svg11.dtd">
<svg version="1.1" id="Livello_1" xmlns="http://www.w3.org/2000/svg" xmlns:xlink="http://www.w3.org/1999/xlink" x="0px" y="0px"
	 width="144.567px" height="144.566px" viewBox="0 0 144.567 144.566" enable-background="new 0 0 144.567 144.566"
	 xml:space="preserve">
<g>
	<path fill="#FFFFFF" d="M141.108,72.961c0-38.512-31.221-69.732-69.732-69.732c-38.512,0-69.732,31.22-69.732,69.732
		c0,38.512,31.22,69.732,69.732,69.732C109.888,142.693,141.108,111.473,141.108,72.961L141.108,72.961z M40.655,77.143l25.91-30.37
		c1.153-1.352,2.841-2.131,4.618-2.131c1.776,0,3.464,0.779,4.618,2.131l25.91,30.37c1.609,1.885,2.303,4.377,1.891,6.822
		l-4.703,28.062c-0.49,2.924-3.021,5.049-5.988,5.049h-5.186V96.469c0-1.322-1.08-2.41-2.404-2.41H74.435
		c-1.322,0-2.374,1.088-2.374,2.41v20.369c0,0.094-0.015,0.133-0.009,0.238H49.456c-2.966,0-5.496-2.125-5.987-5.049l-4.704-28.055
		C38.354,81.529,39.047,79.027,40.655,77.143L40.655,77.143z M115.239,77.209c-2.068,1.863-5.26,1.699-7.121-0.373L75.933,41.044
		c-1.199-1.333-2.914-2.08-4.708-2.08h-0.016c-1.799,0-3.516,0.758-4.713,2.103L34.649,76.807c-0.997,1.121-2.38,1.691-3.767,1.691
		c-1.193,0-2.39-0.42-3.352-1.277c-2.078-1.852-2.263-5.037-0.412-7.118l31.846-35.758c3.101-3.483,7.556-5.486,12.219-5.498
		c4.654-0.065,9.127,1.971,12.246,5.439l32.186,35.799C117.478,72.156,117.31,75.348,115.239,77.209L115.239,77.209z M51.919,95.389
		v8.316c0,1.324,1.072,2.396,2.396,2.396h8.316c1.322,0,2.396-1.072,2.396-2.396v-8.316c0-1.322-1.073-2.395-2.396-2.395h-8.316
		C52.992,92.994,51.919,94.066,51.919,95.389L51.919,95.389z"/>
</g>
</svg>
