<?xml version="1.0" encoding="utf-8"?>
<!-- Generator: Adobe Illustrator 16.0.4, SVG Export Plug-In . SVG Version: 6.00 Build 0)  -->
<!DOCTYPE svg PUBLIC "-//W3C//DTD SVG 1.1//EN" "http://www.w3.org/Graphics/SVG/1.1/DTD/svg11.dtd">
<svg version="1.1" id="Livello_1" xmlns="http://www.w3.org/2000/svg" xmlns:xlink="http://www.w3.org/1999/xlink" x="0px" y="0px"
	 width="144.567px" height="144.566px" viewBox="0 0 144.567 144.566" enable-background="new 0 0 144.567 144.566"
	 xml:space="preserve">
<g>
	<path fill="#FFFFFF" d="M141.108,72.961c0-38.512-31.221-69.732-69.732-69.732c-38.512,0-69.732,31.221-69.732,69.732
		s31.22,69.732,69.732,69.732C109.888,142.693,141.108,111.473,141.108,72.961L141.108,72.961z M91.247,50.074L67.015,63.773
		L55.418,43.26l24.233-13.699L91.247,50.074L91.247,50.074z M118.271,64.197L77.599,87.189L66.966,68.383l40.672-22.993
		L118.271,64.197L118.271,64.197z M119.729,72.904L84.356,93.539c1.842,2.395,2.949,5.383,2.949,8.637
		c0,7.836-6.35,14.186-14.186,14.186c-7.833,0-14.185-6.35-14.185-14.186c0-5.883,3.58-10.926,8.679-13.076L48.353,54.666
		l-12.722-6.417c0,0-0.338,1.014-2.251,1.014c-1.914,0-6.53,0-6.53,0s-3.828-0.338-3.828-2.814c0-2.478,0-2.478,0-2.478
		s0.451-3.265,3.265-3.265s6.53,0,6.53,0s2.927-0.112,3.94,1.914c1.463,1.013,15.761,7.543,15.761,7.543l21.088,37.853
		c2.221,0.076,4.312,0.648,6.16,1.633l37.486-21.359L119.729,72.904L119.729,72.904z M82.747,102.176
		c0-5.316-4.311-9.625-9.627-9.625c-5.315,0-9.625,4.309-9.625,9.625s4.31,9.627,9.625,9.627
		C78.437,111.803,82.747,107.492,82.747,102.176L82.747,102.176z M80.776,102.176c0,4.229-3.426,7.656-7.656,7.656
		c-4.227,0-7.655-3.428-7.655-7.656s3.428-7.656,7.655-7.656C77.351,94.52,80.776,97.947,80.776,102.176L80.776,102.176z
		 M73.128,105.637l3.059-1.652v-3.305l-3.059-1.652l-3.069,1.652v3.305L73.128,105.637L73.128,105.637z"/>
</g>
</svg>
