<?xml version="1.0" encoding="utf-8"?>
<!-- Generator: Adobe Illustrator 16.0.4, SVG Export Plug-In . SVG Version: 6.00 Build 0)  -->
<!DOCTYPE svg PUBLIC "-//W3C//DTD SVG 1.1//EN" "http://www.w3.org/Graphics/SVG/1.1/DTD/svg11.dtd">
<svg version="1.1" id="Livello_1" xmlns="http://www.w3.org/2000/svg" xmlns:xlink="http://www.w3.org/1999/xlink" x="0px" y="0px"
	 width="144.567px" height="144.566px" viewBox="0 0 144.567 144.566" enable-background="new 0 0 144.567 144.566"
	 xml:space="preserve">
<g>
	<path fill="#FFFFFF" d="M141.392,73.103c0-38.59-31.283-69.874-69.874-69.874c-38.59,0-69.874,31.284-69.874,69.874
		c0,38.591,31.284,69.874,69.874,69.874C110.108,142.977,141.392,111.693,141.392,73.103L141.392,73.103z M30.985,101.58
		c1.514-0.746,3.464-1.223,5.58-1.301c0.194-0.01,0.398-0.01,0.592-0.01c0.456,0,0.912,0.02,1.349,0.059
		c1.475,0.127,2.844,0.447,4.018,0.902c0.97,0.553,3.425,2.369,3.425,6.551c0,4.184,2.61,7.297,5.813,8.898
		c0.698,0.35,0.562,1.379-0.204,1.523c-1.979,0.408-4.872,0.855-7.929,0.855c-6.939,0-14.731-2.311-14.731-12.684
		C28.899,106.375,28.695,103.104,30.985,101.58L30.985,101.58z M39.554,94.398c-0.767-0.242-1.582-0.369-2.397-0.369
		c-0.495,0-1,0.049-1.485,0.146V32.795c0-1.067,0.873-1.941,1.941-1.941s1.941,0.874,1.941,1.941V94.398L39.554,94.398z
		 M41.166,97.98c0.165,0.242,0.31,0.514,0.446,0.805l-0.757-0.174c-0.33-0.068-0.66-0.127-1-0.176
		c-0.398-0.059-0.805-0.105-1.213-0.135c-0.485-0.039-0.98-0.059-1.485-0.059c-0.213,0-0.427,0-0.641,0.01
		c-0.408,0.01-0.815,0.039-1.213,0.078c-0.35,0.027-0.68,0.076-1.009,0.125c-0.543,0.088-1.068,0.203-1.572,0.33
		c0.301-0.66,0.698-1.232,1.146-1.641c0.204-0.184,0.417-0.34,0.63-0.445l0.262-0.117c0.301-0.135,0.611-0.242,0.922-0.32
		c0.485-0.125,0.98-0.193,1.485-0.193c0.825,0,1.64,0.174,2.396,0.504c0.088,0.039,0.185,0.078,0.272,0.127
		c0.213,0.105,0.417,0.252,0.611,0.426C40.699,97.359,40.941,97.65,41.166,97.98L41.166,97.98z M81.661,46.372
		c-0.562,1.815-1.988,2.358-3.504,2.358c-2.338,0-4.91-1.301-4.91-1.301c1.213-0.708,1.834-2.106,2.135-3.533
		c-1.27,2.106-3.473,3.494-5.967,3.494c-2.495,0-4.698-1.387-5.968-3.494c0.3,1.417,0.922,2.824,2.135,3.533
		c0,0-2.572,1.301-4.911,1.301c-1.514,0-2.94-0.553-3.503-2.358c-0.087-0.262,0.029-0.553,0.282-0.689
		c0.844-0.457,2.698-1.767,2.698-4.464c0-3.494-0.874-14.071,9.268-14.071c10.141,0,9.268,10.578,9.268,14.071
		c0,2.698,1.854,4.008,2.697,4.464C81.632,45.809,81.749,46.1,81.661,46.372L81.661,46.372z M92.667,79.939
		c-0.602,0.445-1.301,0.66-1.98,0.65c-1.027,0-2.037-0.467-2.697-1.35l-8.453-11.363v3.833l8.035,22.417
		c0.281,0.758-0.271,1.553-1.076,1.553h-6.959v17.361c0,2.494-2.018,4.514-4.512,4.514c-2.495,0-4.513-2.02-4.513-4.514V95.68
		h-2.173v17.381c0,2.494-2.019,4.512-4.513,4.512c-2.494,0-4.512-2.018-4.512-4.512V95.699h-6.958c-0.796,0-1.358-0.805-1.077-1.553
		l8.035-22.417v-8.336l-7.589,5.647c-0.592,0.437-1.301,0.66-2.009,0.66c-0.562,0-1.125-0.136-1.63-0.417l-6.687-3.707V57.9
		l8.045,4.454c0,0,13.315-9.908,13.324-9.917c4.261-3.173,11.082-3.377,14.509,1.184l16.08,21.622
		C94.462,76.727,94.151,78.832,92.667,79.939L92.667,79.939z M114.122,97.844l-2.91,17.488c-0.088,0.553-0.562,0.951-1.115,0.951
		H95.538c-0.553,0-1.018-0.398-1.115-0.941l-3.008-17.488c-0.127-0.689,0.418-1.33,1.115-1.33h3.262l-4.891-3.59
		c-0.922-0.67-1.117-1.961-0.447-2.883s1.961-1.115,2.881-0.445l9.473,6.918h10.209C113.716,96.523,114.249,97.154,114.122,97.844
		L114.122,97.844z M104.05,100.822c-0.039-0.281-0.154-0.533-0.32-0.746c-0.34-0.447-0.912-0.689-1.504-0.602
		c-0.533,0.078-0.971,0.416-1.193,0.863c-0.146,0.291-0.203,0.621-0.156,0.961c0.137,0.873,0.951,1.475,1.824,1.34
		C103.585,102.502,104.177,101.688,104.05,100.822L104.05,100.822z"/>
</g>
</svg>
