<?xml version="1.0" encoding="utf-8"?>
<!-- Generator: Adobe Illustrator 16.0.4, SVG Export Plug-In . SVG Version: 6.00 Build 0)  -->
<!DOCTYPE svg PUBLIC "-//W3C//DTD SVG 1.1//EN" "http://www.w3.org/Graphics/SVG/1.1/DTD/svg11.dtd">
<svg version="1.1" id="Livello_1" xmlns="http://www.w3.org/2000/svg" xmlns:xlink="http://www.w3.org/1999/xlink" x="0px" y="0px"
	 width="144.567px" height="144.566px" viewBox="0 0 144.567 144.566" enable-background="new 0 0 144.567 144.566"
	 xml:space="preserve">
<g>
	<path fill="#FFFFFF" d="M142.157,72.283c0-38.59-31.283-69.874-69.874-69.874S2.41,33.693,2.41,72.283
		c0,38.591,31.284,69.874,69.874,69.874S142.157,110.874,142.157,72.283L142.157,72.283z M109.163,56.159
		c0,1.074-0.77,1.998-1.83,2.194l-35.558,6.49v7.702h2.267c1.643,0,2.979,1.337,2.979,2.979v33.727c0,1.65-1.336,2.98-2.979,2.98
		H65.04c-1.643,0-2.973-1.33-2.973-2.98V75.524c0-1.65,1.33-2.979,2.973-2.979h2.265v-9.562c0-1.076,0.771-2.006,1.833-2.196
		l35.557-6.496v-9.885h-2.965v4.631c0,1.648-1.338,2.979-2.979,2.979H38.384c-0.618,0-1.193-0.188-1.665-0.508
		c-0.32-0.218-0.588-0.488-0.808-0.808c-0.318-0.472-0.508-1.045-0.508-1.663v-13.72c0-0.618,0.19-1.193,0.508-1.665
		c0.22-0.32,0.488-0.588,0.808-0.806c0.472-0.319,1.047-0.509,1.665-0.509h60.367c1.641,0,2.979,1.33,2.979,2.98v4.628h5.195
		c1.236,0,2.238,0.996,2.238,2.231V56.159L109.163,56.159z M97.704,35.119c0.588,0.023,1.178,0.052,1.766,0.08
		c-0.059-0.355-0.35-0.632-0.719-0.632H38.384c-0.415,0-0.75,0.334-0.75,0.75v4.446c0.152-0.042,0.297-0.101,0.43-0.181
		c1.468-0.88,2.811-1.235,4.09-1.301c0,0.043-0.007,0.079-0.007,0.116v4.702c0,1.214,1.01,2.232,2.23,2.232
		c1.215,0,2.231-1.018,2.231-2.232v-4.164c2.246,0.587,4.521,1.266,7.209,0.587c0.552-0.137,1.024-0.232,1.475-0.297
		c-0.515,1.315,0.14,3.141,1.985,3.141c1.286,0,1.991-0.895,2.128-1.876c0.742,1.38,0.823,3.619,2.146,5.981
		c1.03,1.845,3.4,1.147,4.076-0.538c1.235-3.06-0.175-5.596,0.728-8.642c1.243,0.044,2.542-0.087,3.843-0.253
		c2.835,1.076,5.625,1.599,8.734,1.562c5.064-0.051,6.984,1.032,9.156,5.886c0.953,2.108,4.156,0.952,4.164-1.125
		c0.008-2.116,0.604-4.144,0.865-6.229c0.85-0.218,1.715-0.393,2.602-0.473C96.759,36.566,97.421,35.904,97.704,35.119
		L97.704,35.119z M74.638,46.333c2.877,0,2.877-4.463,0-4.463S71.761,46.333,74.638,46.333L74.638,46.333z"/>
</g>
</svg>
